<svg xmlns="http://www.w3.org/2000/svg" xmlns:xlink="http://www.w3.org/1999/xlink" width="500" zoomAndPan="magnify" viewBox="0 0 375 374.999991" height="500" preserveAspectRatio="xMidYMid meet" version="1.0"><defs><g/><clipPath id="49642034e2"><path d="M 109 176 L 118.960938 176 L 118.960938 186 L 109 186 Z M 109 176 " clip-rule="nonzero"/></clipPath><clipPath id="c8c91f02b1"><path d="M 109 200 L 118.960938 200 L 118.960938 210 L 109 210 Z M 109 200 " clip-rule="nonzero"/></clipPath><clipPath id="433c4b006f"><path d="M 42.460938 173 L 86 173 L 86 219.863281 L 42.460938 219.863281 Z M 42.460938 173 " clip-rule="nonzero"/></clipPath><clipPath id="0130fb416d"><path d="M 52 162 L 86 162 L 86 219.863281 L 52 219.863281 Z M 52 162 " clip-rule="nonzero"/></clipPath></defs><path fill="#d9d9d9" d="M 101.9375 194 L 84.648438 194 C 83.902344 194 83.453125 193.550781 83.453125 192.953125 C 83.453125 192.210938 83.902344 191.761719 84.648438 191.761719 L 101.9375 191.761719 C 102.535156 191.761719 103.128906 192.210938 103.128906 192.953125 C 103.128906 193.550781 102.535156 194 101.9375 194 Z M 101.9375 194 " fill-opacity="1" fill-rule="evenodd"/><path fill="#d9d9d9" d="M 97.914062 186.097656 L 84.648438 186.097656 C 83.902344 186.097656 83.453125 185.652344 83.453125 185.054688 C 83.453125 184.457031 83.902344 183.863281 84.648438 183.863281 L 97.464844 183.863281 L 102.535156 179.835938 C 102.683594 179.6875 102.980469 179.6875 103.128906 179.6875 L 110.882812 179.6875 C 111.476562 179.6875 111.925781 180.136719 111.925781 180.730469 C 111.925781 181.328125 111.476562 181.925781 110.882812 181.925781 L 103.578125 181.925781 L 98.507812 185.949219 C 98.359375 186.097656 98.210938 186.097656 97.914062 186.097656 Z M 97.914062 186.097656 " fill-opacity="1" fill-rule="evenodd"/><path fill="#d9d9d9" d="M 95.230469 179.242188 L 84.648438 179.242188 C 83.902344 179.242188 83.453125 178.644531 83.453125 178.050781 C 83.453125 177.453125 83.902344 177.003906 84.648438 177.003906 L 94.78125 177.003906 L 100 172.234375 C 100.148438 172.085938 100.449219 171.9375 100.746094 171.9375 L 106.855469 171.9375 C 107.601562 171.9375 108.050781 172.535156 108.050781 173.128906 C 108.050781 173.726562 107.601562 174.171875 106.855469 174.171875 L 101.191406 174.171875 L 95.976562 178.945312 C 95.828125 179.09375 95.527344 179.242188 95.230469 179.242188 Z M 95.230469 179.242188 " fill-opacity="1" fill-rule="evenodd"/><path fill="#d9d9d9" d="M 110.882812 206.070312 L 103.128906 206.070312 C 102.980469 206.070312 102.683594 206.070312 102.535156 205.773438 L 97.464844 201.75 L 84.648438 201.75 C 83.902344 201.75 83.453125 201.300781 83.453125 200.707031 C 83.453125 200.109375 83.902344 199.511719 84.648438 199.511719 L 97.914062 199.511719 C 98.210938 199.511719 98.359375 199.664062 98.660156 199.8125 L 103.578125 203.835938 L 110.882812 203.835938 C 111.625 203.835938 112.074219 204.433594 112.074219 205.027344 C 112.074219 205.625 111.476562 206.070312 110.882812 206.070312 Z M 110.882812 206.070312 " fill-opacity="1" fill-rule="evenodd"/><path fill="#d9d9d9" d="M 106.855469 213.824219 L 100.746094 213.824219 C 100.449219 213.824219 100.148438 213.675781 100 213.523438 L 94.78125 208.753906 L 84.648438 208.753906 C 83.902344 208.753906 83.453125 208.308594 83.453125 207.710938 C 83.453125 207.117188 83.902344 206.519531 84.648438 206.519531 L 95.230469 206.519531 C 95.527344 206.519531 95.828125 206.667969 95.976562 206.964844 L 101.191406 211.585938 L 106.855469 211.585938 C 107.601562 211.585938 108.050781 212.035156 108.050781 212.628906 C 108.050781 213.226562 107.453125 213.824219 106.855469 213.824219 Z M 106.855469 213.824219 " fill-opacity="1" fill-rule="evenodd"/><g clip-path="url(#49642034e2)"><path fill="#f0ee13" d="M 114.308594 185.351562 C 111.777344 185.351562 109.839844 183.414062 109.839844 180.882812 C 109.839844 178.347656 111.777344 176.410156 114.308594 176.410156 C 116.695312 176.410156 118.78125 178.347656 118.78125 180.882812 C 118.78125 183.414062 116.695312 185.351562 114.308594 185.351562 Z M 114.308594 185.351562 " fill-opacity="1" fill-rule="evenodd"/></g><g clip-path="url(#c8c91f02b1)"><path fill="#f0ee13" d="M 114.308594 209.5 C 111.777344 209.5 109.839844 207.5625 109.839844 205.027344 C 109.839844 202.496094 111.777344 200.558594 114.308594 200.558594 C 116.695312 200.558594 118.78125 202.496094 118.78125 205.027344 C 118.78125 207.5625 116.695312 209.5 114.308594 209.5 Z M 114.308594 209.5 " fill-opacity="1" fill-rule="evenodd"/></g><path fill="#f0ee13" d="M 105.367188 197.425781 C 102.832031 197.425781 100.894531 195.488281 100.894531 192.953125 C 100.894531 190.421875 102.832031 188.484375 105.367188 188.484375 C 107.898438 188.484375 109.839844 190.421875 109.839844 192.953125 C 109.839844 195.488281 107.898438 197.425781 105.367188 197.425781 Z M 105.367188 197.425781 " fill-opacity="1" fill-rule="evenodd"/><g clip-path="url(#433c4b006f)"><path fill="#c6c6c6" d="M 84.5 219.933594 L 43.65625 219.933594 C 43.058594 219.933594 42.464844 219.488281 42.464844 218.742188 L 42.464844 174.769531 C 42.464844 174.171875 43.058594 173.578125 43.65625 173.578125 L 53.34375 173.578125 C 54.089844 173.578125 85.691406 216.355469 85.691406 218.890625 C 85.691406 219.488281 85.09375 219.933594 84.5 219.933594 Z M 84.5 219.933594 " fill-opacity="1" fill-rule="evenodd"/></g><g clip-path="url(#0130fb416d)"><path fill="#ffffff" d="M 84.5 219.933594 C 84.050781 219.933594 83.605469 219.636719 83.453125 219.1875 C 80.773438 210.691406 60.945312 211.140625 53.496094 212.035156 C 53.195312 212.035156 52.898438 212.035156 52.601562 211.734375 C 52.300781 211.585938 52.300781 211.289062 52.300781 210.992188 L 52.300781 164.1875 C 52.300781 163.738281 52.601562 163.292969 53.195312 163.144531 C 54.386719 163.144531 81.667969 159.863281 85.542969 171.492188 C 85.542969 171.640625 85.542969 171.789062 85.542969 171.9375 L 85.691406 218.59375 C 85.691406 218.742188 85.542969 219.039062 85.542969 219.039062 C 85.542969 219.039062 85.542969 219.1875 85.542969 219.1875 C 85.390625 219.636719 85.09375 219.933594 84.5 219.933594 Z M 83.605469 218.59375 Z M 83.605469 218.59375 " fill-opacity="1" fill-rule="evenodd"/></g><path fill="#d9d9d9" d="M 79.429688 177.003906 C 79.28125 177.003906 79.132812 177.003906 78.835938 177.003906 C 69.59375 171.492188 58.265625 173.578125 58.113281 173.578125 C 57.519531 173.726562 56.921875 173.277344 56.921875 172.683594 C 56.773438 172.085938 57.21875 171.492188 57.816406 171.492188 C 58.265625 171.339844 70.039062 169.253906 80.027344 175.066406 C 80.472656 175.367188 80.621094 176.113281 80.324219 176.558594 C 80.175781 176.855469 79.878906 177.003906 79.429688 177.003906 Z M 79.429688 177.003906 " fill-opacity="1" fill-rule="evenodd"/><path fill="#d9d9d9" d="M 79.429688 184.457031 C 79.28125 184.457031 79.132812 184.308594 78.835938 184.308594 C 69.59375 178.945312 58.265625 180.882812 58.113281 180.882812 C 57.519531 181.03125 56.921875 180.582031 56.921875 179.988281 C 56.773438 179.390625 57.21875 178.792969 57.816406 178.792969 C 58.265625 178.644531 70.039062 176.558594 80.027344 182.371094 C 80.472656 182.671875 80.621094 183.414062 80.324219 183.863281 C 80.175781 184.160156 79.878906 184.457031 79.429688 184.457031 Z M 79.429688 184.457031 " fill-opacity="1" fill-rule="evenodd"/><path fill="#d9d9d9" d="M 79.429688 191.761719 C 79.28125 191.761719 79.132812 191.613281 78.835938 191.613281 C 69.59375 186.246094 58.265625 188.183594 58.113281 188.183594 C 57.519531 188.335938 56.921875 187.886719 56.921875 187.289062 C 56.773438 186.695312 57.21875 186.097656 57.816406 186.097656 C 58.265625 185.949219 70.039062 183.863281 80.027344 189.675781 C 80.472656 189.972656 80.621094 190.71875 80.324219 191.167969 C 80.175781 191.464844 79.878906 191.761719 79.429688 191.761719 Z M 79.429688 191.761719 " fill-opacity="1" fill-rule="evenodd"/><path fill="#d9d9d9" d="M 79.429688 199.066406 C 79.28125 199.066406 79.132812 198.917969 78.835938 198.917969 C 69.59375 193.550781 58.265625 195.488281 58.113281 195.488281 C 57.519531 195.636719 56.921875 195.191406 56.921875 194.59375 C 56.773438 194 57.21875 193.402344 57.816406 193.402344 C 58.265625 193.253906 70.039062 191.167969 80.027344 196.980469 C 80.472656 197.425781 80.621094 198.023438 80.324219 198.46875 C 80.175781 198.769531 79.878906 199.066406 79.429688 199.066406 Z M 79.429688 199.066406 " fill-opacity="1" fill-rule="evenodd"/><path fill="#d9d9d9" d="M 79.429688 206.371094 C 79.28125 206.371094 79.132812 206.222656 78.835938 206.222656 C 69.59375 200.855469 58.265625 202.792969 58.113281 202.792969 C 57.519531 202.941406 56.921875 202.496094 56.921875 201.898438 C 56.773438 201.300781 57.21875 200.707031 57.816406 200.707031 C 58.265625 200.707031 70.039062 198.46875 80.027344 204.433594 C 80.472656 204.730469 80.621094 205.328125 80.324219 205.773438 C 80.175781 206.222656 79.878906 206.371094 79.429688 206.371094 Z M 79.429688 206.371094 " fill-opacity="1" fill-rule="evenodd"/><g fill="#ffffff" fill-opacity="1"><g transform="translate(132.158238, 203.190231)"><g><path d="M 19.5625 -13.421875 C 19.113281 -11.285156 17.945312 -9.75 16.0625 -8.8125 C 14.1875 -7.882812 11.890625 -7.421875 9.171875 -7.421875 C 8.203125 -7.421875 7.304688 -7.460938 6.484375 -7.546875 C 6.535156 -6.265625 6.875 -5.304688 7.5 -4.671875 C 8.125 -4.046875 9.003906 -3.734375 10.140625 -3.734375 C 11.203125 -3.734375 12.082031 -3.941406 12.78125 -4.359375 C 13.476562 -4.773438 14.117188 -5.414062 14.703125 -6.28125 L 15.0625 -6.28125 L 18.171875 -4.171875 C 17.578125 -3.210938 16.910156 -2.40625 16.171875 -1.75 C 15.441406 -1.101562 14.515625 -0.585938 13.390625 -0.203125 C 12.273438 0.171875 10.90625 0.359375 9.28125 0.359375 C 7.800781 0.359375 6.484375 0.046875 5.328125 -0.578125 C 4.171875 -1.210938 3.265625 -2.128906 2.609375 -3.328125 C 1.953125 -4.535156 1.625 -5.976562 1.625 -7.65625 C 1.625 -8.601562 1.734375 -9.609375 1.953125 -10.671875 C 2.347656 -12.523438 3.078125 -14.125 4.140625 -15.46875 C 5.203125 -16.8125 6.484375 -17.832031 7.984375 -18.53125 C 9.492188 -19.238281 11.109375 -19.59375 12.828125 -19.59375 C 14.296875 -19.59375 15.539062 -19.367188 16.5625 -18.921875 C 17.59375 -18.472656 18.367188 -17.863281 18.890625 -17.09375 C 19.421875 -16.320312 19.6875 -15.460938 19.6875 -14.515625 C 19.6875 -14.117188 19.644531 -13.753906 19.5625 -13.421875 Z M 12.375 -15.84375 C 11.632812 -15.84375 10.910156 -15.671875 10.203125 -15.328125 C 9.503906 -14.992188 8.867188 -14.488281 8.296875 -13.8125 C 7.722656 -13.132812 7.285156 -12.289062 6.984375 -11.28125 C 7.878906 -11.207031 8.726562 -11.171875 9.53125 -11.171875 C 11.113281 -11.171875 12.375 -11.367188 13.3125 -11.765625 C 14.25 -12.160156 14.820312 -12.859375 15.03125 -13.859375 C 15.050781 -13.992188 15.0625 -14.101562 15.0625 -14.1875 C 15.0625 -14.675781 14.828125 -15.070312 14.359375 -15.375 C 13.898438 -15.6875 13.238281 -15.84375 12.375 -15.84375 Z M 12.375 -15.84375 "/></g></g></g><g fill="#ffffff" fill-opacity="1"><g transform="translate(153.061929, 203.190231)"><g><path d="M 12.03125 -11.109375 L 2.109375 -11.109375 L 2.671875 -13.65625 L 12.59375 -13.65625 Z M 12.03125 -11.109375 "/></g></g></g><g fill="#ffffff" fill-opacity="1"><g transform="translate(166.58445, 203.190231)"><g><path d="M 1.3125 0 L 7.03125 -26.953125 L 9.859375 -26.953125 L 6.515625 -11.203125 L 6.984375 -11.203125 L 15.28125 -19.234375 L 18.828125 -19.234375 L 18.734375 -18.828125 L 9.21875 -9.921875 L 12.390625 -5.171875 C 13.535156 -3.503906 14.59375 -1.925781 15.5625 -0.4375 L 15.484375 0 L 12.515625 0 L 6.5 -8.890625 L 6.03125 -8.890625 L 4.15625 0 Z M 1.3125 0 "/></g></g></g><g fill="#ffffff" fill-opacity="1"><g transform="translate(184.463453, 203.190231)"><g><path d="M 7.578125 0.359375 C 6.460938 0.359375 5.503906 0.140625 4.703125 -0.296875 C 3.898438 -0.742188 3.289062 -1.375 2.875 -2.1875 C 2.46875 -3 2.265625 -3.9375 2.265625 -5 C 2.265625 -5.601562 2.332031 -6.242188 2.46875 -6.921875 L 5.09375 -19.234375 L 7.9375 -19.234375 L 5.234375 -6.484375 C 5.148438 -6.109375 5.109375 -5.722656 5.109375 -5.328125 C 5.109375 -4.347656 5.40625 -3.566406 6 -2.984375 C 6.601562 -2.398438 7.429688 -2.109375 8.484375 -2.109375 C 10.222656 -2.109375 11.707031 -2.675781 12.9375 -3.8125 C 14.164062 -4.945312 15.054688 -6.796875 15.609375 -9.359375 L 17.6875 -19.234375 L 20.53125 -19.234375 L 16.453125 0 L 13.765625 0 L 14.421875 -3.015625 L 14.0625 -3.109375 C 13.28125 -1.910156 12.390625 -1.03125 11.390625 -0.46875 C 10.398438 0.0820312 9.128906 0.359375 7.578125 0.359375 Z M 11.109375 -22.9375 C 10.554688 -22.9375 10.101562 -23.109375 9.75 -23.453125 C 9.40625 -23.796875 9.234375 -24.226562 9.234375 -24.75 C 9.234375 -25.289062 9.40625 -25.726562 9.75 -26.0625 C 10.101562 -26.40625 10.554688 -26.578125 11.109375 -26.578125 C 11.648438 -26.578125 12.09375 -26.40625 12.4375 -26.0625 C 12.789062 -25.726562 12.96875 -25.289062 12.96875 -24.75 C 12.96875 -24.226562 12.789062 -23.796875 12.4375 -23.453125 C 12.09375 -23.109375 11.648438 -22.9375 11.109375 -22.9375 Z M 16.859375 -22.9375 C 16.316406 -22.9375 15.875 -23.109375 15.53125 -23.453125 C 15.1875 -23.796875 15.015625 -24.226562 15.015625 -24.75 C 15.015625 -25.289062 15.1875 -25.726562 15.53125 -26.0625 C 15.875 -26.40625 16.316406 -26.578125 16.859375 -26.578125 C 17.398438 -26.578125 17.84375 -26.40625 18.1875 -26.0625 C 18.539062 -25.726562 18.71875 -25.289062 18.71875 -24.75 C 18.71875 -24.226562 18.539062 -23.796875 18.1875 -23.453125 C 17.84375 -23.109375 17.398438 -22.9375 16.859375 -22.9375 Z M 16.859375 -22.9375 "/></g></g></g><g fill="#ffffff" fill-opacity="1"><g transform="translate(206.298148, 203.190231)"><g><path d="M 8.609375 -16.90625 L 6.1875 -5.484375 C 6.101562 -5.097656 6.0625 -4.726562 6.0625 -4.375 C 6.0625 -3.625 6.265625 -3.066406 6.671875 -2.703125 C 7.078125 -2.347656 7.644531 -2.171875 8.375 -2.171875 C 9.40625 -2.171875 10.332031 -2.460938 11.15625 -3.046875 L 11.515625 -3.046875 L 12.09375 -1.015625 C 11.019531 -0.0976562 9.5625 0.359375 7.71875 0.359375 C 6.3125 0.359375 5.203125 -0.0195312 4.390625 -0.78125 C 3.585938 -1.550781 3.1875 -2.609375 3.1875 -3.953125 C 3.1875 -4.472656 3.242188 -5.007812 3.359375 -5.5625 L 5.765625 -16.90625 L 2.421875 -16.90625 L 2.921875 -19.25 L 6.28125 -19.25 L 7.125 -23.3125 L 10.078125 -23.78125 L 9.125 -19.25 L 15.3125 -19.25 L 14.796875 -16.90625 Z M 8.609375 -16.90625 "/></g></g></g><g fill="#ffffff" fill-opacity="1"><g transform="translate(220.935929, 203.190231)"><g><path d="M 7.578125 0.359375 C 6.460938 0.359375 5.503906 0.140625 4.703125 -0.296875 C 3.898438 -0.742188 3.289062 -1.375 2.875 -2.1875 C 2.46875 -3 2.265625 -3.9375 2.265625 -5 C 2.265625 -5.601562 2.332031 -6.242188 2.46875 -6.921875 L 5.09375 -19.234375 L 7.9375 -19.234375 L 5.234375 -6.484375 C 5.148438 -6.109375 5.109375 -5.722656 5.109375 -5.328125 C 5.109375 -4.347656 5.40625 -3.566406 6 -2.984375 C 6.601562 -2.398438 7.429688 -2.109375 8.484375 -2.109375 C 10.222656 -2.109375 11.707031 -2.675781 12.9375 -3.8125 C 14.164062 -4.945312 15.054688 -6.796875 15.609375 -9.359375 L 17.6875 -19.234375 L 20.53125 -19.234375 L 16.453125 0 L 13.765625 0 L 14.421875 -3.015625 L 14.0625 -3.109375 C 13.28125 -1.910156 12.390625 -1.03125 11.390625 -0.46875 C 10.398438 0.0820312 9.128906 0.359375 7.578125 0.359375 Z M 11.109375 -22.9375 C 10.554688 -22.9375 10.101562 -23.109375 9.75 -23.453125 C 9.40625 -23.796875 9.234375 -24.226562 9.234375 -24.75 C 9.234375 -25.289062 9.40625 -25.726562 9.75 -26.0625 C 10.101562 -26.40625 10.554688 -26.578125 11.109375 -26.578125 C 11.648438 -26.578125 12.09375 -26.40625 12.4375 -26.0625 C 12.789062 -25.726562 12.96875 -25.289062 12.96875 -24.75 C 12.96875 -24.226562 12.789062 -23.796875 12.4375 -23.453125 C 12.09375 -23.109375 11.648438 -22.9375 11.109375 -22.9375 Z M 16.859375 -22.9375 C 16.316406 -22.9375 15.875 -23.109375 15.53125 -23.453125 C 15.1875 -23.796875 15.015625 -24.226562 15.015625 -24.75 C 15.015625 -25.289062 15.1875 -25.726562 15.53125 -26.0625 C 15.875 -26.40625 16.316406 -26.578125 16.859375 -26.578125 C 17.398438 -26.578125 17.84375 -26.40625 18.1875 -26.0625 C 18.539062 -25.726562 18.71875 -25.289062 18.71875 -24.75 C 18.71875 -24.226562 18.539062 -23.796875 18.1875 -23.453125 C 17.84375 -23.109375 17.398438 -22.9375 16.859375 -22.9375 Z M 16.859375 -22.9375 "/></g></g></g><g fill="#ffffff" fill-opacity="1"><g transform="translate(242.770624, 203.190231)"><g><path d="M -0.34375 7.78125 L 5.390625 -19.234375 L 8.234375 -19.234375 L 7.640625 -16.421875 L 7.984375 -16.359375 C 8.609375 -17.285156 9.515625 -18.054688 10.703125 -18.671875 C 11.890625 -19.285156 13.238281 -19.59375 14.75 -19.59375 C 15.96875 -19.59375 17.050781 -19.316406 18 -18.765625 C 18.957031 -18.222656 19.707031 -17.40625 20.25 -16.3125 C 20.800781 -15.21875 21.078125 -13.894531 21.078125 -12.34375 C 21.078125 -11.300781 20.945312 -10.179688 20.6875 -8.984375 C 20.257812 -6.953125 19.566406 -5.238281 18.609375 -3.84375 C 17.660156 -2.457031 16.5 -1.410156 15.125 -0.703125 C 13.75 0.00390625 12.210938 0.359375 10.515625 0.359375 C 9.265625 0.359375 8.148438 0.101562 7.171875 -0.40625 C 6.191406 -0.914062 5.5 -1.671875 5.09375 -2.671875 L 4.703125 -2.59375 L 2.5 7.78125 Z M 10.5 -2.171875 C 14.34375 -2.171875 16.796875 -4.65625 17.859375 -9.625 C 18.078125 -10.644531 18.1875 -11.5625 18.1875 -12.375 C 18.1875 -13.976562 17.789062 -15.15625 17 -15.90625 C 16.207031 -16.664062 15.097656 -17.046875 13.671875 -17.046875 C 12.503906 -17.046875 11.421875 -16.789062 10.421875 -16.28125 C 9.429688 -15.769531 8.570312 -14.984375 7.84375 -13.921875 C 7.125 -12.867188 6.597656 -11.550781 6.265625 -9.96875 C 6.035156 -8.90625 5.921875 -7.941406 5.921875 -7.078125 C 5.921875 -5.398438 6.320312 -4.160156 7.125 -3.359375 C 7.9375 -2.566406 9.0625 -2.171875 10.5 -2.171875 Z M 10.5 -2.171875 "/></g></g></g><g fill="#ffffff" fill-opacity="1"><g transform="translate(265.703146, 203.190231)"><g><path d="M 1.3125 0 L 7.03125 -26.953125 L 9.859375 -26.953125 L 7.65625 -16.484375 L 8 -16.421875 C 8.789062 -17.441406 9.695312 -18.222656 10.71875 -18.765625 C 11.75 -19.316406 12.9375 -19.59375 14.28125 -19.59375 C 16.144531 -19.59375 17.546875 -19.128906 18.484375 -18.203125 C 19.429688 -17.285156 19.90625 -16.023438 19.90625 -14.421875 C 19.90625 -13.742188 19.832031 -13.0625 19.6875 -12.375 L 17.046875 0 L 14.203125 0 L 16.828125 -12.3125 C 16.953125 -12.914062 17.015625 -13.441406 17.015625 -13.890625 C 17.015625 -14.953125 16.710938 -15.753906 16.109375 -16.296875 C 15.515625 -16.847656 14.617188 -17.125 13.421875 -17.125 C 11.734375 -17.125 10.25 -16.539062 8.96875 -15.375 C 7.6875 -14.207031 6.773438 -12.367188 6.234375 -9.859375 L 4.15625 0 Z M 1.3125 0 "/></g></g></g><g fill="#ffffff" fill-opacity="1"><g transform="translate(287.834076, 203.190231)"><g><path d="M 8.1875 0.359375 C 7.03125 0.359375 5.972656 0.0976562 5.015625 -0.421875 C 4.054688 -0.941406 3.285156 -1.742188 2.703125 -2.828125 C 2.128906 -3.910156 1.84375 -5.238281 1.84375 -6.8125 C 1.84375 -7.882812 1.96875 -8.972656 2.21875 -10.078125 C 2.882812 -13.222656 4.078125 -15.59375 5.796875 -17.1875 C 7.515625 -18.789062 9.726562 -19.59375 12.4375 -19.59375 C 13.664062 -19.59375 14.765625 -19.304688 15.734375 -18.734375 C 16.710938 -18.171875 17.398438 -17.363281 17.796875 -16.3125 L 18.1875 -16.390625 L 18.8125 -19.234375 L 21.65625 -19.234375 L 17.5625 0 L 14.71875 0 L 15.3125 -2.8125 L 14.953125 -2.875 C 14.285156 -1.832031 13.382812 -1.03125 12.25 -0.46875 C 11.113281 0.0820312 9.757812 0.359375 8.1875 0.359375 Z M 9.28125 -2.171875 C 11.0625 -2.171875 12.617188 -2.785156 13.953125 -4.015625 C 15.285156 -5.242188 16.21875 -7.109375 16.75 -9.609375 C 16.925781 -10.460938 17.015625 -11.242188 17.015625 -11.953125 C 17.015625 -13.566406 16.601562 -14.816406 15.78125 -15.703125 C 14.96875 -16.597656 13.859375 -17.046875 12.453125 -17.046875 C 8.597656 -17.046875 6.144531 -14.566406 5.09375 -9.609375 C 4.914062 -8.828125 4.828125 -8.035156 4.828125 -7.234375 C 4.828125 -6.160156 5.007812 -5.242188 5.375 -4.484375 C 5.75 -3.722656 6.269531 -3.144531 6.9375 -2.75 C 7.613281 -2.363281 8.394531 -2.171875 9.28125 -2.171875 Z M 9.28125 -2.171875 "/></g></g></g><g fill="#ffffff" fill-opacity="1"><g transform="translate(310.784031, 203.190231)"><g><path d="M 1.3125 0 L 5.390625 -19.234375 L 8.09375 -19.234375 L 7.4375 -16.21875 L 7.796875 -16.125 C 9.222656 -18.4375 11.378906 -19.59375 14.265625 -19.59375 C 16.023438 -19.59375 17.398438 -19.128906 18.390625 -18.203125 C 19.378906 -17.285156 19.875 -16 19.875 -14.34375 C 19.875 -13.726562 19.804688 -13.070312 19.671875 -12.375 L 17.046875 0 L 14.203125 0 L 16.828125 -12.3125 C 16.941406 -12.84375 17 -13.347656 17 -13.828125 C 17 -14.910156 16.675781 -15.726562 16.03125 -16.28125 C 15.394531 -16.84375 14.441406 -17.125 13.171875 -17.125 C 11.503906 -17.125 10.066406 -16.550781 8.859375 -15.40625 C 7.660156 -14.269531 6.785156 -12.421875 6.234375 -9.859375 L 4.15625 0 Z M 1.3125 0 "/></g></g></g><g fill="#ffffff" fill-opacity="1"><g transform="translate(332.914961, 203.190231)"><g><path d="M 18.734375 -13.5 C 18.410156 -11.800781 17.460938 -10.429688 15.890625 -9.390625 C 14.328125 -8.347656 12.09375 -7.828125 9.1875 -7.828125 C 7.8125 -7.828125 6.367188 -7.941406 4.859375 -8.171875 C 4.816406 -7.816406 4.796875 -7.429688 4.796875 -7.015625 C 4.796875 -5.441406 5.195312 -4.238281 6 -3.40625 C 6.800781 -2.582031 7.960938 -2.171875 9.484375 -2.171875 C 10.828125 -2.171875 11.945312 -2.425781 12.84375 -2.9375 C 13.75 -3.445312 14.554688 -4.234375 15.265625 -5.296875 L 15.640625 -5.296875 L 17.390625 -4.109375 C 16.566406 -2.617188 15.46875 -1.5 14.09375 -0.75 C 12.726562 -0.0078125 11.007812 0.359375 8.9375 0.359375 C 7.539062 0.359375 6.3125 0.0390625 5.25 -0.59375 C 4.195312 -1.226562 3.382812 -2.132812 2.8125 -3.3125 C 2.238281 -4.5 1.953125 -5.875 1.953125 -7.4375 C 1.953125 -8.40625 2.0625 -9.398438 2.28125 -10.421875 C 2.695312 -12.378906 3.390625 -14.046875 4.359375 -15.421875 C 5.335938 -16.796875 6.519531 -17.832031 7.90625 -18.53125 C 9.300781 -19.238281 10.84375 -19.59375 12.53125 -19.59375 C 13.914062 -19.59375 15.082031 -19.359375 16.03125 -18.890625 C 16.976562 -18.429688 17.679688 -17.8125 18.140625 -17.03125 C 18.609375 -16.257812 18.84375 -15.421875 18.84375 -14.515625 C 18.84375 -14.179688 18.804688 -13.84375 18.734375 -13.5 Z M 12.03125 -17.1875 C 10.332031 -17.1875 8.9375 -16.660156 7.84375 -15.609375 C 6.75 -14.566406 5.90625 -12.890625 5.3125 -10.578125 C 6.675781 -10.441406 7.882812 -10.375 8.9375 -10.375 C 11.21875 -10.375 12.910156 -10.664062 14.015625 -11.25 C 15.117188 -11.84375 15.769531 -12.679688 15.96875 -13.765625 C 16 -13.984375 16.015625 -14.1875 16.015625 -14.375 C 16.015625 -15.226562 15.660156 -15.910156 14.953125 -16.421875 C 14.253906 -16.929688 13.28125 -17.1875 12.03125 -17.1875 Z M 12.03125 -17.1875 "/></g></g></g></svg>